<svg version="1.1" id="Layer_1" xmlns="http://www.w3.org/2000/svg" x="0px" y="0px"
	 viewBox="0 0 200 200" style="enable-background:new 0 0 200 200;" xml:space="preserve">
<path style="fill:#999999;" d="M5,74.8C2.8,83,1.6,91.6,1.6,100.5c0,49.5,36.5,90.4,84,97.3L5,74.8z M114.3,197.9c47.5-6.9,84-47.9,84-97.3
	c0-8.9-1.2-17.5-3.4-25.7C194.9,74.9,114.3,197.9,114.3,197.9z"/>
<path style="fill:#66CC99;" d="M99.9,2.1c-27,0-51.4,10.9-69.2,28.5c-3.5,3.4-4,8.9-1.3,13l62.3,94.3c4.1,6.2,13.2,6.2,17.3,0l61.6-94.1
	c2.7-4.1,2.2-9.5-1.3-12.9C151.6,13.1,127,2.1,99.9,2.1z M100,80.8c-21.1,0-38.3-13.2-38.3-29.4S78.9,22,100,22s38.3,13.2,38.3,29.4
	S121.1,80.8,100,80.8z"/>
<ellipse style="fill:#999999;" cx="100" cy="51.4" rx="25.4" ry="29.4"/>
</svg>
